<svg width="29px" height="11px" viewBox="39 101 29 11" version="1.1" xmlns="http://www.w3.org/2000/svg" xmlns:xlink="http://www.w3.org/1999/xlink">>
  <g id="Page-1" stroke="none" stroke-width="1" fill="none" fill-rule="evenodd" transform="translate(39.000000, 101.000000)">
      <path d="M28.9787333,4.57106897 C28.9636533,4.49103448 28.9334933,4.39468966 28.8731733,4.27027586 L23.4327733,0.0326206897 L12.48508,0.0326206897 C12.2314267,0.0178275862 12.0937733,0.134655172 11.97468,0.271206897 L8.31488,3.86706897 L0.312813333,5.17265517 C0.201066667,5.26748276 0.0889333333,5.3607931 0,5.60658621 L0.0166266667,8.30765517 C0.19024,8.74044828 0.308173333,8.68431034 0.43964,8.745 L1.98012,8.745 C1.98012,5.07327586 7.55508,5.08806897 7.55508,8.745 L21.7712667,8.745 C21.7712667,5.06568966 27.3036933,5.07327586 27.3036933,8.745 L28.5665467,8.745 C28.7780533,8.72565517 28.8971467,8.54206897 28.9984533,8.327 L28.9787333,4.57106897 Z M17.2279333,4.3962069 L9.64385333,4.3962069 C9.3554,4.28506897 9.31634667,4.11475862 9.43698667,3.9087931 L12.1633733,1.26993103 C12.22524,1.21796552 12.2735733,1.14817241 12.37952,1.16296552 L17.2279333,1.16296552 L17.2279333,4.3962069 Z M25.0819067,4.39772414 L18.12964,4.39772414 L18.12964,1.16448276 L22.20936,1.16448276 C22.3164667,1.14817241 22.3648,1.21948276 22.42512,1.27144828 L24.7617467,3.57993103 C24.9778933,3.89665517 25.4113467,4.33248276 25.0819067,4.39772414 L25.0819067,4.39772414 Z" id="Fill-1" fill="#fff"></path>
      <path d="M4.75484,6.52982759 C3.50397333,6.52982759 2.49206667,7.524 2.49206667,8.74917241 C2.49206667,9.97624138 3.50552,10.9688966 4.75484,10.9688966 C6.00532,10.9688966 7.01722667,9.97472414 7.01722667,8.74917241 C7.01722667,7.52248276 6.00377333,6.52982759 4.75484,6.52982759 L4.75484,6.52982759 Z M4.75484,9.68113793 C4.22781333,9.68113793 3.80016,9.262 3.80016,8.745 C3.80016,8.22762069 4.22781333,7.80848276 4.75484,7.80848276 C5.28186667,7.80848276 5.70952,8.22762069 5.70952,8.745 C5.70952,9.262 5.28186667,9.68113793 4.75484,9.68113793 L4.75484,9.68113793 Z" id="Fill-2" fill="#fff"></path>
      <path d="M24.5382533,6.52831034 C23.2877733,6.52831034 22.27548,7.52248276 22.27548,8.74765517 C22.27548,9.97472414 23.2889333,10.9673793 24.5382533,10.9673793 C25.7887333,10.9673793 26.80064,9.9732069 26.80064,8.74765517 C26.80064,7.52096552 25.7887333,6.52831034 24.5382533,6.52831034 L24.5382533,6.52831034 Z M24.5382533,9.68113793 C24.0112267,9.68113793 23.5835733,9.262 23.5835733,8.745 C23.5835733,8.22762069 24.0112267,7.80848276 24.5382533,7.80848276 C25.06528,7.80848276 25.4929333,8.22762069 25.4929333,8.745 C25.4929333,9.262 25.06528,9.68113793 24.5382533,9.68113793 L24.5382533,9.68113793 Z" id="Fill-3" fill="#fff"></path>
  </g>
</svg>
